<svg width="124" height="28" viewBox="0 0 124 28" fill="none" xmlns="http://www.w3.org/2000/svg">
<path d="M9.37712 0.584961C11.74 0.584961 13.8048 1.05327 15.5716 1.98989C17.3384 2.9265 18.7007 4.24628 19.6586 5.94922C20.6378 7.63088 21.1274 9.57862 21.1274 11.7924C21.1274 13.985 20.6378 15.9327 19.6586 17.6357C18.7007 19.3386 17.3277 20.6584 15.5396 21.595C13.7728 22.5316 11.7187 22.9999 9.37712 22.9999H0.979492V0.584961H9.37712ZM9.02589 18.2743C11.0907 18.2743 12.6979 17.7102 13.8473 16.582C14.9968 15.4538 15.5716 13.8573 15.5716 11.7924C15.5716 9.72762 14.9968 8.12047 13.8473 6.97099C12.6979 5.8215 11.0907 5.24676 9.02589 5.24676H6.43955V18.2743H9.02589Z" fill="black"/>
<path d="M23.0931 14.0595C23.0931 12.2288 23.4337 10.6217 24.1149 9.23803C24.8173 7.85439 25.7646 6.79005 26.9567 6.04502C28.1487 5.29998 29.4791 4.92746 30.9479 4.92746C32.2038 4.92746 33.3001 5.1829 34.2367 5.69378C35.1946 6.20467 35.929 6.8752 36.4399 7.70538V5.1829H41.9V22.9999H36.4399V20.4774C35.9077 21.3076 35.1627 21.9782 34.2048 22.489C33.2682 22.9999 32.1719 23.2554 30.916 23.2554C29.4685 23.2554 28.1487 22.8828 26.9567 22.1378C25.7646 21.3715 24.8173 20.2965 24.1149 18.9129C23.4337 17.5079 23.0931 15.8901 23.0931 14.0595ZM36.4399 14.0914C36.4399 12.7291 36.0568 11.6541 35.2904 10.8665C34.5454 10.0789 33.6301 9.68505 32.5444 9.68505C31.4588 9.68505 30.5328 10.0789 29.7665 10.8665C29.0215 11.6328 28.649 12.6971 28.649 14.0595C28.649 15.4218 29.0215 16.5075 29.7665 17.3164C30.5328 18.104 31.4588 18.4978 32.5444 18.4978C33.6301 18.4978 34.5454 18.104 35.2904 17.3164C36.0568 16.5287 36.4399 15.4538 36.4399 14.0914Z" fill="black"/>
<path d="M56.7063 4.99132C58.7924 4.99132 60.4528 5.6725 61.6874 7.03485C62.9433 8.37592 63.5713 10.2279 63.5713 12.5907V22.9999H58.1432V13.3251C58.1432 12.133 57.8345 11.2071 57.2172 10.5472C56.5999 9.88727 55.7697 9.55733 54.7267 9.55733C53.6836 9.55733 52.8534 9.88727 52.2361 10.5472C51.6188 11.2071 51.3101 12.133 51.3101 13.3251V22.9999H45.8501V5.1829H51.3101V7.54573C51.8636 6.75812 52.6086 6.14081 53.5452 5.69378C54.4819 5.22547 55.5356 4.99132 56.7063 4.99132Z" fill="black"/>
<path d="M66.2799 14.0595C66.2799 12.2288 66.6205 10.6217 67.3016 9.23803C68.0041 7.85439 68.9514 6.79005 70.1434 6.04502C71.3355 5.29998 72.6659 4.92746 74.1347 4.92746C75.3906 4.92746 76.4869 5.1829 77.4235 5.69378C78.3814 6.20467 79.1158 6.8752 79.6267 7.70538V5.1829H85.0867V22.9999H79.6267V20.4774C79.0945 21.3076 78.3495 21.9782 77.3916 22.489C76.455 22.9999 75.3587 23.2554 74.1028 23.2554C72.6553 23.2554 71.3355 22.8828 70.1434 22.1378C68.9514 21.3715 68.0041 20.2965 67.3016 18.9129C66.6205 17.5079 66.2799 15.8901 66.2799 14.0595ZM79.6267 14.0914C79.6267 12.7291 79.2435 11.6541 78.4772 10.8665C77.7322 10.0789 76.8168 9.68505 75.7312 9.68505C74.6456 9.68505 73.7196 10.0789 72.9533 10.8665C72.2082 11.6328 71.8357 12.6971 71.8357 14.0595C71.8357 15.4218 72.2082 16.5075 72.9533 17.3164C73.7196 18.104 74.6456 18.4978 75.7312 18.4978C76.8168 18.4978 77.7322 18.104 78.4772 17.3164C79.2435 16.5287 79.6267 15.4538 79.6267 14.0914Z" fill="black"/>
<path d="M99.8931 4.99132C101.979 4.99132 103.64 5.6725 104.874 7.03485C106.13 8.37592 106.758 10.2279 106.758 12.5907V22.9999H101.33V13.3251C101.33 12.133 101.021 11.2071 100.404 10.5472C99.7867 9.88727 98.9565 9.55733 97.9134 9.55733C96.8704 9.55733 96.0402 9.88727 95.4229 10.5472C94.8056 11.2071 94.4969 12.133 94.4969 13.3251V22.9999H89.0368V5.1829H94.4969V7.54573C95.0504 6.75812 95.7954 6.14081 96.732 5.69378C97.6686 5.22547 98.7223 4.99132 99.8931 4.99132Z" fill="black"/>
<path d="M115.661 18.4978H123.388V22.9999H109.562V18.6574L116.97 9.68505H109.626V5.1829H123.229V9.5254L115.661 18.4978Z" fill="black"/>
<path fill-rule="evenodd" clip-rule="evenodd" d="M54.6152 13C55.1675 13 55.6152 13.4477 55.6152 14V25.5H96.9999V14C96.9999 13.4477 97.4476 13 97.9999 13C98.5522 13 98.9999 13.4477 98.9999 14V27.5H53.6152V14C53.6152 13.4477 54.0629 13 54.6152 13Z" fill="black"/>
</svg>
