<svg width="94" height="44" viewBox="0 0 94 44" fill="none" xmlns="http://www.w3.org/2000/svg">
<path fill-rule="evenodd" clip-rule="evenodd" d="M82 12H3V41H82V12ZM0 9V44H85V9H0Z" fill="white"/>
<path d="M20.1054 35.2201C18.4254 35.2201 17.2321 34.7535 16.5254 33.8201C15.8321 32.8735 15.4854 31.5401 15.4854 29.8201V24.0401C15.4854 22.2668 15.8321 20.9201 16.5254 20.0001C17.2187 19.0801 18.4121 18.6201 20.1054 18.6201C21.6921 18.6201 22.8187 19.0201 23.4854 19.8201C24.1521 20.6201 24.4854 21.7735 24.4854 23.2801V24.6401H21.6454V23.2401C21.6454 22.6668 21.6187 22.2201 21.5654 21.9001C21.5121 21.5668 21.3721 21.3001 21.1454 21.1001C20.9321 20.8868 20.5921 20.7801 20.1254 20.7801C19.6454 20.7801 19.2854 20.8935 19.0454 21.1201C18.8054 21.3335 18.6454 21.6268 18.5654 22.0001C18.4987 22.3601 18.4654 22.8335 18.4654 23.4201V30.4401C18.4654 31.3601 18.5854 32.0268 18.8254 32.4401C19.0654 32.8401 19.4987 33.0401 20.1254 33.0401C20.5787 33.0401 20.9121 32.9335 21.1254 32.7201C21.3521 32.5068 21.4921 32.2268 21.5454 31.8801C21.6121 31.5201 21.6454 31.0468 21.6454 30.4601V29.0001H24.4854V30.3001C24.4854 31.8601 24.1587 33.0735 23.5054 33.9401C22.8521 34.7935 21.7187 35.2201 20.1054 35.2201Z" fill="white"/>
<path d="M28.5462 18.8001H32.4462C34.1529 18.8001 35.4262 19.1268 36.2662 19.7801C37.1062 20.4201 37.5262 21.5268 37.5262 23.1001C37.5262 24.1268 37.3729 24.9668 37.0662 25.6201C36.7729 26.2601 36.2595 26.7268 35.5262 27.0201L37.7862 35.0001H34.8262L32.8862 27.5801H31.4862V35.0001H28.5462V18.8001ZM32.4262 25.7401C33.2662 25.7401 33.8595 25.5468 34.2062 25.1601C34.5662 24.7735 34.7462 24.1401 34.7462 23.2601C34.7462 22.4068 34.5862 21.7868 34.2662 21.4001C33.9595 21.0135 33.3995 20.8201 32.5862 20.8201H31.4862V25.7401H32.4262Z" fill="white"/>
<path d="M41.8371 18.8001H44.7571V35.0001H41.8371V18.8001Z" fill="white"/>
<path d="M53.3449 35.2201C51.8783 35.2201 50.7783 34.8068 50.0449 33.9801C49.3249 33.1535 48.9316 31.9201 48.8649 30.2801L51.4049 29.7801C51.4449 30.8068 51.6049 31.5935 51.8849 32.1401C52.1783 32.6735 52.6316 32.9401 53.2449 32.9401C53.6983 32.9401 54.0316 32.8068 54.2449 32.5401C54.4716 32.2601 54.5849 31.8868 54.5849 31.4201C54.5849 30.7801 54.4383 30.2401 54.1449 29.8001C53.8649 29.3468 53.4183 28.8535 52.8049 28.3201L50.7649 26.5401C50.1383 26.0068 49.6649 25.4335 49.3449 24.8201C49.0383 24.2068 48.8849 23.4735 48.8849 22.6201C48.8849 21.3535 49.2516 20.3735 49.9849 19.6801C50.7316 18.9735 51.7583 18.6201 53.0649 18.6201C54.4649 18.6201 55.4649 19.0201 56.0649 19.8201C56.6783 20.6068 57.0316 21.6735 57.1249 23.0201L54.5849 23.4601C54.5449 22.5801 54.4183 21.9201 54.2049 21.4801C54.0049 21.0268 53.6049 20.8001 53.0049 20.8001C52.5783 20.8001 52.2449 20.9468 52.0049 21.2401C51.7649 21.5201 51.6449 21.8801 51.6449 22.3201C51.6449 22.8401 51.7449 23.2801 51.9449 23.6401C52.1583 23.9868 52.4983 24.3601 52.9649 24.7601L54.9849 26.5401C55.7449 27.1935 56.3383 27.8935 56.7649 28.6401C57.1916 29.3868 57.4049 30.2535 57.4049 31.2401C57.4049 32.0135 57.2316 32.7001 56.8849 33.3001C56.5516 33.9001 56.0783 34.3735 55.4649 34.7201C54.8516 35.0535 54.1449 35.2201 53.3449 35.2201Z" fill="white"/>
<path d="M61.1478 18.8001H65.9078C68.6678 18.8001 70.0478 20.3335 70.0478 23.4001C70.0478 26.3335 68.6011 27.8001 65.7078 27.8001H64.0878V35.0001H61.1478V18.8001ZM65.2278 25.7201C66.0278 25.7201 66.5678 25.5535 66.8478 25.2201C67.1278 24.8735 67.2678 24.2601 67.2678 23.3801C67.2678 22.7401 67.2211 22.2535 67.1278 21.9201C67.0344 21.5735 66.8411 21.3135 66.5478 21.1401C66.2678 20.9668 65.8278 20.8801 65.2278 20.8801H64.0878V25.7201H65.2278Z" fill="white"/>
<path d="M89.5 38V33.5H92.5V1.5H10.5V4.5H6.5" stroke="white" stroke-width="3"/>
</svg>
