<svg width="17" height="17" viewBox="0 0 17 17" fill="none" xmlns="http://www.w3.org/2000/svg">
<path fill-rule="evenodd" clip-rule="evenodd" d="M6.15385 9.90769C8.22704 9.90769 9.90769 8.22704 9.90769 6.15385C9.90769 4.08065 8.22704 2.4 6.15385 2.4C4.08065 2.4 2.4 4.08065 2.4 6.15385C2.4 8.22704 4.08065 9.90769 6.15385 9.90769ZM6.15385 12.3077C9.55252 12.3077 12.3077 9.55252 12.3077 6.15385C12.3077 2.75517 9.55252 0 6.15385 0C2.75517 0 0 2.75517 0 6.15385C0 9.55252 2.75517 12.3077 6.15385 12.3077Z" fill="white"/>
<path fill-rule="evenodd" clip-rule="evenodd" d="M15.1515 16.8485L10.6387 12.3357L12.3357 10.6387L16.8485 15.1515L15.1515 16.8485Z" fill="white"/>
</svg>
