<svg width="28" height="22" viewBox="0 0 28 22" fill="none" xmlns="http://www.w3.org/2000/svg">
<g filter="url(#filter0_d_121_46443)">
<path d="M23.2188 8.90632L21.0625 6.34382C20.875 6.12507 20.5312 6.09382 20.2812 6.28132C20.0625 6.46882 20.0312 6.81257 20.2188 7.06257L22.25 9.46882H4.9375C4.625 9.46882 4.375 9.71882 4.375 10.0313C4.375 10.3438 4.625 10.5938 4.9375 10.5938H22.25L20.2188 13.0001C20.0312 13.2188 20.0625 13.5626 20.2812 13.7813C20.375 13.8751 20.5 13.9063 20.625 13.9063C20.7812 13.9063 20.9375 13.8438 21.0312 13.7188L23.1875 11.1563C23.75 10.4688 23.75 9.53132 23.2188 8.90632Z" fill="#3056D3"/>
</g>
<defs>
<filter id="filter0_d_121_46443" x="0" y="0" width="28" height="28" filterUnits="userSpaceOnUse" color-interpolation-filters="sRGB">
<feFlood flood-opacity="0" result="BackgroundImageFix"/>
<feColorMatrix in="SourceAlpha" type="matrix" values="0 0 0 0 0 0 0 0 0 0 0 0 0 0 0 0 0 0 127 0" result="hardAlpha"/>
<feOffset dy="4"/>
<feGaussianBlur stdDeviation="2"/>
<feComposite in2="hardAlpha" operator="out"/>
<feColorMatrix type="matrix" values="0 0 0 0 0 0 0 0 0 0 0 0 0 0 0 0 0 0 0.25 0"/>
<feBlend mode="normal" in2="BackgroundImageFix" result="effect1_dropShadow_121_46443"/>
<feBlend mode="normal" in="SourceGraphic" in2="effect1_dropShadow_121_46443" result="shape"/>
</filter>
</defs>
</svg>
