<svg width="32" height="32" viewBox="0 0 32 32" fill="none" xmlns="http://www.w3.org/2000/svg">
<path fill-rule="evenodd" clip-rule="evenodd" d="M5.66699 16C5.66699 15.4477 6.11471 15 6.66699 15H25.3337C25.8859 15 26.3337 15.4477 26.3337 16C26.3337 16.5523 25.8859 17 25.3337 17H6.66699C6.11471 17 5.66699 16.5523 5.66699 16Z" fill="black"/>
<path fill-rule="evenodd" clip-rule="evenodd" d="M15.2929 5.95952C15.6834 5.56899 16.3166 5.56899 16.7071 5.95952L26.0404 15.2929C26.431 15.6834 26.431 16.3165 26.0404 16.7071L16.7071 26.0404C16.3166 26.4309 15.6834 26.4309 15.2929 26.0404C14.9024 25.6499 14.9024 25.0167 15.2929 24.6262L23.9191 16L15.2929 7.37373C14.9024 6.98321 14.9024 6.35004 15.2929 5.95952Z" fill="black"/>
</svg>
