<svg width="53" height="102" viewBox="0 0 53 102" fill="none" xmlns="http://www.w3.org/2000/svg">
<path d="M1.93408 33.1952C2.96504 33.1952 3.80078 34.0314 3.80078 35.0629C3.80078 36.0943 2.96504 36.9305 1.93408 36.9305C0.903127 36.9305 0.0673829 36.0943 0.0673828 35.0629C0.0673828 34.0314 0.903127 33.1952 1.93408 33.1952Z" fill="white" fill-opacity="0.3"/>
<path d="M1.93408 16.7607C2.96504 16.7607 3.80078 17.5969 3.80078 18.6283C3.80078 19.6598 2.96504 20.496 1.93408 20.496C0.903127 20.496 0.0673829 19.6598 0.0673828 18.6283C0.0673828 17.5969 0.903127 16.7607 1.93408 16.7607Z" fill="white" fill-opacity="0.3"/>
<path d="M1.93408 0.325546C2.96504 0.325546 3.80078 1.16171 3.80078 2.19318C3.80078 3.22464 2.96504 4.06081 1.93408 4.06081C0.903127 4.06081 0.0673829 3.22464 0.0673828 2.19318C0.0673828 1.16171 0.903127 0.325546 1.93408 0.325546Z" fill="white" fill-opacity="0.3"/>
<path d="M17.9037 33.1959C18.9346 33.1959 19.7704 34.032 19.7704 35.0635C19.7704 36.095 18.9346 36.9312 17.9037 36.9312C16.8727 36.9312 16.037 36.095 16.037 35.0635C16.037 34.032 16.8727 33.1959 17.9037 33.1959Z" fill="white" fill-opacity="0.3"/>
<path d="M34.3307 33.1959C35.3616 33.1959 36.1974 34.032 36.1974 35.0635C36.1974 36.095 35.3616 36.9312 34.3307 36.9312C33.2997 36.9312 32.464 36.095 32.464 35.0635C32.464 34.032 33.2997 33.1959 34.3307 33.1959Z" fill="white" fill-opacity="0.3"/>
<path d="M50.7576 33.1959C51.7885 33.1959 52.6243 34.032 52.6243 35.0635C52.6243 36.095 51.7885 36.9312 50.7576 36.9312C49.7266 36.9312 48.8909 36.095 48.8909 35.0635C48.8909 34.032 49.7266 33.1959 50.7576 33.1959Z" fill="white" fill-opacity="0.3"/>
<path d="M17.9037 16.7607C18.9346 16.7607 19.7704 17.5969 19.7704 18.6283C19.7704 19.6598 18.9346 20.496 17.9037 20.496C16.8727 20.496 16.037 19.6598 16.037 18.6283C16.037 17.5969 16.8727 16.7607 17.9037 16.7607Z" fill="white" fill-opacity="0.3"/>
<path d="M34.3307 16.7607C35.3616 16.7607 36.1974 17.5969 36.1974 18.6283C36.1974 19.6598 35.3616 20.496 34.3307 20.496C33.2997 20.496 32.464 19.6598 32.464 18.6283C32.464 17.5969 33.2997 16.7607 34.3307 16.7607Z" fill="white" fill-opacity="0.3"/>
<path d="M50.7576 16.7607C51.7885 16.7607 52.6243 17.5969 52.6243 18.6283C52.6243 19.6598 51.7885 20.496 50.7576 20.496C49.7266 20.496 48.8909 19.6598 48.8909 18.6283C48.8909 17.5969 49.7266 16.7607 50.7576 16.7607Z" fill="white" fill-opacity="0.3"/>
<path d="M17.9037 0.325211C18.9346 0.325211 19.7704 1.16139 19.7704 2.19286C19.7704 3.22432 18.9346 4.06049 17.9037 4.06049C16.8727 4.06049 16.037 3.22432 16.037 2.19286C16.037 1.16139 16.8727 0.325211 17.9037 0.325211Z" fill="white" fill-opacity="0.3"/>
<path d="M34.3307 0.325195C35.3616 0.325195 36.1974 1.16139 36.1974 2.19286C36.1974 3.22432 35.3616 4.06049 34.3307 4.06049C33.2997 4.06049 32.464 3.22432 32.464 2.19286C32.464 1.16139 33.2997 0.325195 34.3307 0.325195Z" fill="white" fill-opacity="0.3"/>
<path d="M50.7576 0.325195C51.7885 0.325195 52.6243 1.16139 52.6243 2.19286C52.6243 3.22432 51.7885 4.06049 50.7576 4.06049C49.7266 4.06049 48.8909 3.22432 48.8909 2.19286C48.8909 1.16139 49.7266 0.325195 50.7576 0.325195Z" fill="white" fill-opacity="0.3"/>
<path d="M1.93408 82.2028C2.96504 82.2028 3.80078 83.039 3.80078 84.0704C3.80078 85.1019 2.96504 85.9381 1.93408 85.9381C0.903127 85.9381 0.0673829 85.1019 0.0673828 84.0704C0.0673828 83.039 0.903127 82.2028 1.93408 82.2028Z" fill="white" fill-opacity="0.3"/>
<path d="M1.93408 65.7676C2.96504 65.7676 3.80078 66.6038 3.80078 67.6353C3.80078 68.6667 2.96504 69.5029 1.93408 69.5029C0.903127 69.5029 0.0673829 68.6667 0.0673828 67.6353C0.0673828 66.6038 0.903127 65.7676 1.93408 65.7676Z" fill="white" fill-opacity="0.3"/>
<path d="M1.93408 98.2649C2.96504 98.2649 3.80078 99.1011 3.80078 100.133C3.80078 101.164 2.96504 102 1.93408 102C0.903127 102 0.0673829 101.164 0.0673828 100.133C0.0673828 99.1011 0.903127 98.2649 1.93408 98.2649Z" fill="white" fill-opacity="0.3"/>
<path d="M1.93408 49.3328C2.96504 49.3328 3.80078 50.169 3.80078 51.2004C3.80078 52.2319 2.96504 53.0681 1.93408 53.0681C0.903127 53.0681 0.0673829 52.2319 0.0673828 51.2004C0.0673828 50.169 0.903127 49.3328 1.93408 49.3328Z" fill="white" fill-opacity="0.3"/>
<path d="M17.9037 82.2031C18.9346 82.2031 19.7704 83.0393 19.7704 84.0708C19.7704 85.1022 18.9346 85.9384 17.9037 85.9384C16.8727 85.9384 16.037 85.1022 16.037 84.0708C16.037 83.0393 16.8727 82.2031 17.9037 82.2031Z" fill="white" fill-opacity="0.3"/>
<path d="M34.3307 82.2031C35.3616 82.2031 36.1974 83.0393 36.1974 84.0708C36.1974 85.1022 35.3616 85.9384 34.3307 85.9384C33.2997 85.9384 32.464 85.1022 32.464 84.0708C32.464 83.0393 33.2997 82.2031 34.3307 82.2031Z" fill="white" fill-opacity="0.3"/>
<path d="M50.7576 82.2031C51.7885 82.2031 52.6243 83.0393 52.6243 84.0708C52.6243 85.1022 51.7885 85.9384 50.7576 85.9384C49.7266 85.9384 48.8909 85.1022 48.8909 84.0708C48.8909 83.0393 49.7266 82.2031 50.7576 82.2031Z" fill="white" fill-opacity="0.3"/>
<path d="M17.9037 65.7676C18.9346 65.7676 19.7704 66.6038 19.7704 67.6353C19.7704 68.6667 18.9346 69.5029 17.9037 69.5029C16.8727 69.5029 16.037 68.6667 16.037 67.6353C16.037 66.6038 16.8727 65.7676 17.9037 65.7676Z" fill="white" fill-opacity="0.3"/>
<path d="M34.3307 65.768C35.3616 65.768 36.1974 66.6041 36.1974 67.6356C36.1974 68.6671 35.3616 69.5032 34.3307 69.5032C33.2997 69.5032 32.464 68.6671 32.464 67.6356C32.464 66.6041 33.2997 65.768 34.3307 65.768Z" fill="white" fill-opacity="0.3"/>
<path d="M50.7576 65.768C51.7885 65.768 52.6243 66.6041 52.6243 67.6356C52.6243 68.6671 51.7885 69.5032 50.7576 69.5032C49.7266 69.5032 48.8909 68.6671 48.8909 67.6356C48.8909 66.6041 49.7266 65.768 50.7576 65.768Z" fill="white" fill-opacity="0.3"/>
<path d="M17.9037 98.2646C18.9346 98.2646 19.7704 99.1008 19.7704 100.132C19.7704 101.164 18.9346 102 17.9037 102C16.8727 102 16.037 101.164 16.037 100.132C16.037 99.1008 16.8727 98.2646 17.9037 98.2646Z" fill="white" fill-opacity="0.3"/>
<path d="M17.9037 49.3325C18.9346 49.3325 19.7704 50.1686 19.7704 51.2001C19.7704 52.2315 18.9346 53.0677 17.9037 53.0677C16.8727 53.0677 16.037 52.2315 16.037 51.2001C16.037 50.1686 16.8727 49.3325 17.9037 49.3325Z" fill="white" fill-opacity="0.3"/>
<path d="M34.3307 98.2646C35.3616 98.2646 36.1974 99.1008 36.1974 100.132C36.1974 101.164 35.3616 102 34.3307 102C33.2997 102 32.464 101.164 32.464 100.132C32.464 99.1008 33.2997 98.2646 34.3307 98.2646Z" fill="white" fill-opacity="0.3"/>
<path d="M34.3307 49.3325C35.3616 49.3325 36.1974 50.1686 36.1974 51.2001C36.1974 52.2315 35.3616 53.0677 34.3307 53.0677C33.2997 53.0677 32.464 52.2315 32.464 51.2001C32.464 50.1686 33.2997 49.3325 34.3307 49.3325Z" fill="white" fill-opacity="0.3"/>
<path d="M50.7576 98.2646C51.7885 98.2646 52.6243 99.1008 52.6243 100.132C52.6243 101.164 51.7885 102 50.7576 102C49.7266 102 48.8909 101.164 48.8909 100.132C48.8909 99.1008 49.7266 98.2646 50.7576 98.2646Z" fill="white" fill-opacity="0.3"/>
<path d="M50.7576 49.3325C51.7885 49.3325 52.6243 50.1686 52.6243 51.2001C52.6243 52.2315 51.7885 53.0677 50.7576 53.0677C49.7266 53.0677 48.8909 52.2315 48.8909 51.2001C48.8909 50.1686 49.7266 49.3325 50.7576 49.3325Z" fill="white" fill-opacity="0.3"/>
</svg>
