<svg width="191" height="65" viewBox="0 0 191 65" fill="none" xmlns="http://www.w3.org/2000/svg">
<path fill-rule="evenodd" clip-rule="evenodd" d="M30.0714 22.9705C32.8117 19.4682 37.1999 17.1993 42.1459 17.1993C47.1209 17.1993 51.5314 19.495 54.2685 23.0324C54.1519 23.1462 54.0459 23.2642 53.9498 23.382C53.4484 23.9988 53.0712 24.7934 52.769 25.6003C52.1604 27.2231 51.6962 29.3429 51.2665 31.3278L51.2283 31.5063C50.7994 33.4876 50.4009 35.3303 49.9189 36.6982C49.7024 37.3127 49.4971 37.7472 49.315 38.0254C49.125 37.7449 48.9094 37.3052 48.6813 36.6818C48.1658 35.2747 47.7323 33.3607 47.2727 31.317L47.2578 31.2501V31.25C46.8162 29.2871 46.3477 27.2043 45.7636 25.61C45.4702 24.8091 45.1102 24.0225 44.6392 23.4113C44.1771 22.8116 43.4077 22.1347 42.2826 22.1347C41.1645 22.1347 40.3916 22.8042 39.9227 23.3972C39.4427 24.0045 39.0685 24.7878 38.7602 25.5891C38.1394 27.2026 37.6318 29.3133 37.1594 31.301L37.1106 31.5063C36.6429 33.4753 36.2056 35.3162 35.7092 36.6867C35.5197 37.21 35.3409 37.6083 35.1791 37.8927C35.0209 37.6096 34.8465 37.214 34.6622 36.6951C34.186 35.3538 33.7689 33.5644 33.3208 31.6426L33.2424 31.3063C32.7782 29.3174 32.2745 27.2029 31.6449 25.5843C31.332 24.7801 30.9493 23.9928 30.4542 23.3828C30.342 23.2447 30.2146 23.1045 30.0714 22.9705ZM28.4129 25.6596C28.5434 25.9045 28.6814 26.208 28.8242 26.575C29.3693 27.976 29.831 29.8877 30.3065 31.9249L30.399 32.3219C30.832 34.1807 31.2823 36.1144 31.8128 37.6083C32.0949 38.4028 32.4356 39.181 32.8738 39.7858C33.2882 40.3578 34.0316 41.0967 35.1746 41.0967C36.3144 41.0967 37.0596 40.3614 37.4768 39.792C37.9187 39.1886 38.265 38.4112 38.5528 37.6162C39.1046 36.0927 39.5744 34.1138 40.024 32.2199V32.2198L40.0928 31.9303C40.5772 29.8918 41.0436 27.9763 41.5846 26.5702C41.8353 25.9187 42.0699 25.4649 42.2742 25.1833C42.4678 25.4625 42.689 25.9091 42.9236 26.5493C43.4392 27.9566 43.8723 29.8705 44.332 31.9142L44.347 31.9811C44.7886 33.9441 45.257 36.027 45.8411 37.6211C46.1345 38.4223 46.4946 39.2089 46.9655 39.8199C47.4278 40.4198 48.197 41.0967 49.322 41.0967C50.453 41.0967 51.2194 40.4136 51.6762 39.8084C52.14 39.1943 52.4887 38.4051 52.7704 37.6052C53.3119 36.0687 53.7424 34.0752 54.153 32.1788V32.1787L54.2118 31.9034C54.6538 29.8622 55.078 27.9558 55.602 26.559C55.7154 26.2551 55.8272 25.996 55.9338 25.7784C56.7365 27.5265 57.1817 29.4567 57.1817 31.4857C57.1817 39.3757 50.4502 45.7721 42.1459 45.7721C33.8417 45.7721 27.1099 39.3757 27.1099 31.4857C27.1099 29.4106 27.5755 27.4388 28.4129 25.6596ZM42.1459 14.342C32.1809 14.342 24.1027 22.0175 24.1027 31.4857C24.1027 40.9538 32.1809 48.6292 42.1459 48.6292C52.1111 48.6292 60.1889 40.9538 60.1889 31.4857C60.1889 22.0175 52.1111 14.342 42.1459 14.342ZM42.4896 24.9442C42.4896 24.9445 42.4861 24.9472 42.4791 24.9511C42.4861 24.9458 42.4896 24.9438 42.4896 24.9442ZM42.074 24.9461C42.067 24.9421 42.0635 24.9393 42.0635 24.9389C42.0635 24.9385 42.0671 24.9406 42.074 24.9461ZM49.0933 38.2966C49.0933 38.2966 49.0966 38.2935 49.1031 38.2896C49.0966 38.2949 49.0933 38.2971 49.0933 38.2966ZM49.5306 38.2851C49.5375 38.2891 49.5413 38.2918 49.5413 38.2922C49.5413 38.2926 49.5375 38.2904 49.5306 38.2851ZM34.8665 38.3223C34.8664 38.3218 34.8708 38.3178 34.8794 38.3121C34.8708 38.3196 34.8665 38.3227 34.8665 38.3223ZM35.4755 38.3148C35.4841 38.3205 35.4884 38.3245 35.4884 38.3249C35.4883 38.3254 35.484 38.3227 35.4755 38.3148Z" fill="#81818B"/>
<path d="M70.1518 41.6351L65.7765 27.4144H69.609L72.2041 37.6498L75.2212 27.4144H79.5063L82.524 37.6498L85.149 27.4144H88.9815L84.5757 41.6351H80.5626L77.3638 30.9982L74.1655 41.6351H70.1518Z" fill="#81818B"/>
<path d="M94.6048 41.9793C93.3175 41.9793 92.2612 41.7877 91.4364 41.4055C90.6122 41.0042 89.9985 40.4786 89.5958 39.8287C89.1936 39.1788 88.9926 38.4621 88.9926 37.6785C88.9926 36.3597 89.5354 35.2893 90.6216 34.4674C91.7079 33.6455 93.338 33.2346 95.5104 33.2346H99.3125V32.8905C99.3125 31.9157 99.0206 31.199 98.4373 30.7402C97.854 30.2815 97.1295 30.0522 96.2649 30.0522C95.48 30.0522 94.7959 30.2337 94.2126 30.5969C93.6294 30.9409 93.2671 31.457 93.1264 32.1451H89.3543C89.4551 31.113 89.8173 30.2146 90.4405 29.45C91.0847 28.6855 91.9095 28.1025 92.9148 27.7012C93.9213 27.2807 95.0474 27.0704 96.2948 27.0704C98.4273 27.0704 100.107 27.5769 101.334 28.5899C102.561 29.603 103.175 31.0366 103.175 32.8905V41.6351H99.8853L99.5235 39.3416C99.081 40.1061 98.4573 40.7366 97.653 41.2338C96.8681 41.7306 95.8522 41.9793 94.6048 41.9793ZM95.48 39.112C96.5867 39.112 97.4414 38.7678 98.0446 38.0798C98.6683 37.3919 99.061 36.5411 99.2222 35.5282H95.9325C94.9067 35.5282 94.1727 35.7098 93.7296 36.0729C93.2876 36.4168 93.066 36.8472 93.066 37.3631C93.066 37.9175 93.2876 38.3475 93.7296 38.6532C94.1727 38.9589 94.7555 39.112 95.48 39.112Z" fill="#81818B"/>
<path d="M109.255 41.6351L103.763 27.4144H107.806L111.608 38.1661L115.411 27.4144H119.454L113.932 41.6351H109.255Z" fill="#81818B"/>
<path d="M127.218 41.9793C125.71 41.9793 124.372 41.6732 123.205 41.0617C122.039 40.4499 121.124 39.5898 120.459 38.4811C119.795 37.3728 119.464 36.092 119.464 34.6394C119.464 33.1677 119.786 31.8584 120.429 30.7116C121.093 29.5648 121.998 28.676 123.145 28.0452C124.311 27.3954 125.679 27.0704 127.249 27.0704C128.717 27.0704 130.015 27.3762 131.142 27.9879C132.268 28.5995 133.143 29.4405 133.767 30.5109C134.41 31.5621 134.733 32.7376 134.733 34.0373C134.733 34.2476 134.722 34.4674 134.702 34.6967C134.702 34.9262 134.692 35.165 134.672 35.4135H123.296C123.376 36.5221 123.779 37.3919 124.503 38.0228C125.247 38.6532 126.143 38.9687 127.189 38.9687C127.973 38.9687 128.627 38.8063 129.15 38.4811C129.693 38.1373 130.095 37.6976 130.357 37.1622H134.279C133.998 38.0608 133.525 38.8828 132.861 39.6283C132.217 40.3543 131.413 40.9277 130.447 41.3484C129.502 41.7687 128.425 41.9793 127.218 41.9793ZM127.249 30.0522C126.304 30.0522 125.468 30.3102 124.744 30.8262C124.02 31.3232 123.557 32.0878 123.356 33.1199H130.809C130.749 32.1833 130.387 31.4379 129.723 30.8836C129.059 30.3293 128.235 30.0522 127.249 30.0522Z" fill="#81818B"/>
<path d="M136.774 41.635V20.9922H140.636V41.635H136.774Z" fill="#81818B"/>
<path d="M150.647 41.9793C149.139 41.9793 147.801 41.6732 146.634 41.0617C145.468 40.4499 144.553 39.5898 143.889 38.4811C143.224 37.3728 142.893 36.092 142.893 34.6394C142.893 33.1677 143.215 31.8584 143.858 30.7116C144.522 29.5648 145.427 28.676 146.574 28.0452C147.741 27.3954 149.109 27.0704 150.678 27.0704C152.146 27.0704 153.444 27.3762 154.571 27.9879C155.697 28.5995 156.573 29.4405 157.196 30.5109C157.839 31.5621 158.162 32.7376 158.162 34.0373C158.162 34.2476 158.151 34.4674 158.131 34.6967C158.131 34.9262 158.121 35.165 158.101 35.4135H146.725C146.805 36.5221 147.208 37.3919 147.932 38.0228C148.676 38.6532 149.572 38.9687 150.618 38.9687C151.402 38.9687 152.056 38.8063 152.579 38.4811C153.122 38.1373 153.524 37.6976 153.786 37.1622H157.709C157.427 38.0608 156.954 38.8828 156.291 39.6283C155.646 40.3543 154.842 40.9277 153.876 41.3484C152.931 41.7687 151.855 41.9793 150.647 41.9793ZM150.678 30.0522C149.733 30.0522 148.898 30.3102 148.173 30.8262C147.449 31.3232 146.987 32.0878 146.785 33.1199H154.238C154.178 32.1833 153.816 31.4379 153.152 30.8836C152.488 30.3293 151.664 30.0522 150.678 30.0522Z" fill="#81818B"/>
<path d="M166.389 41.9793C165.061 41.9793 163.894 41.7784 162.889 41.3772C161.882 40.9564 161.078 40.3831 160.474 39.6566C159.871 38.9306 159.509 38.0896 159.388 37.134H163.281C163.401 37.6878 163.724 38.1661 164.247 38.5674C164.789 38.9496 165.483 39.1408 166.328 39.1408C167.173 39.1408 167.787 38.9784 168.169 38.6532C168.571 38.3285 168.773 37.9555 168.773 37.5352C168.773 36.9234 168.491 36.5124 167.928 36.3022C167.365 36.0729 166.58 35.8532 165.574 35.6429C164.931 35.5091 164.277 35.3466 163.613 35.1555C162.949 34.9644 162.336 34.7254 161.772 34.4388C161.229 34.1329 160.786 33.7506 160.444 33.2919C160.102 32.814 159.932 32.2311 159.932 31.543C159.932 30.2815 160.454 29.2207 161.501 28.3606C162.567 27.5005 164.055 27.0704 165.966 27.0704C167.737 27.0704 169.145 27.4622 170.191 28.2459C171.257 29.0296 171.891 30.1095 172.092 31.4857H168.441C168.219 30.4344 167.384 29.9088 165.937 29.9088C165.212 29.9088 164.649 30.0426 164.247 30.3102C163.864 30.5778 163.673 30.9122 163.673 31.3136C163.673 31.7342 163.965 32.0686 164.548 32.3171C165.132 32.5656 165.906 32.7949 166.872 33.0052C167.917 33.2346 168.873 33.4926 169.738 33.7793C170.623 34.0469 171.327 34.4579 171.851 35.0122C172.374 35.5473 172.635 36.3212 172.635 37.3343C172.655 38.2139 172.413 39.0067 171.911 39.7141C171.408 40.4211 170.684 40.9754 169.738 41.3772C168.793 41.7784 167.676 41.9793 166.389 41.9793Z" fill="#81818B"/>
<path d="M181.035 41.9793C179.708 41.9793 178.541 41.7784 177.535 41.3772C176.529 40.9564 175.725 40.3831 175.121 39.6566C174.518 38.9306 174.155 38.0896 174.035 37.134H177.928C178.048 37.6878 178.37 38.1661 178.893 38.5674C179.436 38.9496 180.13 39.1408 180.975 39.1408C181.82 39.1408 182.434 38.9784 182.816 38.6532C183.218 38.3285 183.42 37.9555 183.42 37.5352C183.42 36.9234 183.138 36.5124 182.574 36.3022C182.011 36.0729 181.227 35.8532 180.221 35.6429C179.577 35.5091 178.923 35.3466 178.259 35.1555C177.596 34.9644 176.982 34.7254 176.419 34.4388C175.876 34.1329 175.433 33.7506 175.091 33.2919C174.749 32.814 174.578 32.2311 174.578 31.543C174.578 30.2815 175.101 29.2207 176.147 28.3606C177.214 27.5005 178.702 27.0704 180.613 27.0704C182.383 27.0704 183.791 27.4622 184.838 28.2459C185.903 29.0296 186.537 30.1095 186.739 31.4857H183.087C182.866 30.4344 182.031 29.9088 180.583 29.9088C179.858 29.9088 179.295 30.0426 178.893 30.3102C178.511 30.5778 178.32 30.9122 178.32 31.3136C178.32 31.7342 178.611 32.0686 179.195 32.3171C179.778 32.5656 180.553 32.7949 181.518 33.0052C182.564 33.2346 183.52 33.4926 184.385 33.7793C185.27 34.0469 185.974 34.4579 186.497 35.0122C187.02 35.5473 187.282 36.3212 187.282 37.3343C187.302 38.2139 187.06 39.0067 186.557 39.7141C186.055 40.4211 185.331 40.9754 184.385 41.3772C183.439 41.7784 182.323 41.9793 181.035 41.9793Z" fill="#81818B"/>
</svg>
