<svg width="28" height="20" viewBox="0 0 28 20" fill="none" xmlns="http://www.w3.org/2000/svg">
<path d="M7.75588 11.4865H15.6924V19.1814H12.4211L12.0308 15.8916C11.6591 17.0687 10.9962 17.9423 10.042 18.5123C9.08793 19.0823 7.92316 19.3673 6.54774 19.3673C5.29623 19.3673 4.18103 19.0885 3.20213 18.5309C2.23562 17.9733 1.47356 17.1741 0.915961 16.1332C0.37075 15.0923 0.0981445 13.878 0.0981445 12.4902C0.0981445 10.2722 0.761071 8.51884 2.08692 7.23016C3.41278 5.94148 5.47591 5.29714 8.27631 5.29714C9.87477 5.29714 11.2812 5.55735 12.4955 6.07778C13.7222 6.59821 14.7631 7.40363 15.6181 8.49406C15.0605 8.77905 13.97 9.34905 12.3468 10.204L11.8821 10.4643C11.3989 9.981 10.8351 9.62165 10.1907 9.38622C9.5464 9.1384 8.86489 9.01448 8.1462 9.01448C6.95665 9.01448 6.07068 9.33046 5.4883 9.96241C4.90591 10.582 4.61472 11.3502 4.61472 12.2672C4.61472 13.2585 4.9245 14.0577 5.54406 14.6649C6.17601 15.272 7.13632 15.5756 8.425 15.5756C8.9826 15.5756 9.52162 15.4951 10.042 15.334C10.5749 15.1729 11.0209 14.8941 11.3803 14.4976H7.75588V11.4865Z" fill="#BABABA"/>
<path d="M27.9968 4.53603C26.0514 4.47407 24.1618 4.4369 22.3279 4.42451V14.1268H17.6812V4.42451C15.8349 4.4369 13.9515 4.47407 12.0308 4.53603V0.632812H27.9968V4.53603Z" fill="#BABABA"/>
</svg>
