<svg width="18" height="18" viewBox="0 0 18 18" fill="none" xmlns="http://www.w3.org/2000/svg">
<path d="M8.90245 12.1941C10.7363 12.1941 12.2229 10.7075 12.2229 8.87364C12.2229 7.03982 10.7363 5.55322 8.90245 5.55322C7.06863 5.55322 5.58203 7.03982 5.58203 8.87364C5.58203 10.7075 7.06863 12.1941 8.90245 12.1941Z" fill="#CDCED6"/>
<path d="M12.5088 0H5.23824C2.34719 0 0 2.34719 0 5.23824V12.4516C0 15.3999 2.34719 17.7471 5.23824 17.7471H12.4516C15.3999 17.7471 17.7471 15.3999 17.7471 12.5088V5.23824C17.7471 2.34719 15.3999 0 12.5088 0ZM8.90215 13.2244C6.46909 13.2244 4.55126 11.2493 4.55126 8.87353C4.55126 6.49771 6.49771 4.52264 8.90215 4.52264C11.278 4.52264 13.2244 6.49771 13.2244 8.87353C13.2244 11.2493 11.3066 13.2244 8.90215 13.2244ZM14.9133 4.92338C14.627 5.23824 14.1976 5.40999 13.711 5.40999C13.2817 5.40999 12.8523 5.23824 12.5088 4.92338C12.1939 4.60851 12.0222 4.20777 12.0222 3.72116C12.0222 3.23454 12.1939 2.86243 12.5088 2.51894C12.8237 2.17545 13.2244 2.0037 13.711 2.0037C14.1404 2.0037 14.5984 2.17545 14.9133 2.49031C15.1995 2.86243 15.3999 3.29179 15.3999 3.74978C15.3712 4.20777 15.1995 4.60851 14.9133 4.92338Z" fill="#CDCED6"/>
<path d="M13.74 3.03418C13.3678 3.03418 13.053 3.34905 13.053 3.72116C13.053 4.09328 13.3678 4.40815 13.74 4.40815C14.1121 4.40815 14.4269 4.09328 14.4269 3.72116C14.4269 3.34905 14.1407 3.03418 13.74 3.03418Z" fill="#CDCED6"/>
</svg>
