<svg width="18" height="14" viewBox="0 0 18 14" fill="none" xmlns="http://www.w3.org/2000/svg">
<path d="M15.9968 2.41096L17.1 1.09589C17.4194 0.739726 17.5065 0.465753 17.5355 0.328767C16.6645 0.821918 15.8516 0.986301 15.329 0.986301H15.1258L15.0097 0.876712C14.3129 0.30137 13.4419 0 12.5129 0C10.4806 0 8.88387 1.58904 8.88387 3.42466C8.88387 3.53425 8.88387 3.69863 8.9129 3.80822L9 4.35616L8.39032 4.32877C4.67419 4.21918 1.62581 1.20548 1.13226 0.684932C0.319355 2.05479 0.783871 3.36986 1.27742 4.19178L2.26452 5.72603L0.696774 4.90411C0.725806 6.05479 1.19032 6.9589 2.09032 7.61644L2.87419 8.16438L2.09032 8.46575C2.58387 9.86301 3.6871 10.4384 4.5 10.6575L5.57419 10.9315L4.55806 11.589C2.93226 12.6849 0.9 12.6027 0 12.5205C1.82903 13.726 4.00645 14 5.51613 14C6.64839 14 7.49032 13.8904 7.69355 13.8082C15.8226 12 16.2 5.15068 16.2 3.78082V3.58904L16.3742 3.47945C17.3613 2.60274 17.7677 2.13699 18 1.86301C17.9129 1.89041 17.7968 1.94521 17.6806 1.9726L15.9968 2.41096Z" fill="#CDCED6"/>
</svg>
