<svg width="23" height="22" viewBox="0 0 23 22" fill="none" xmlns="http://www.w3.org/2000/svg">
<path fill-rule="evenodd" clip-rule="evenodd" d="M11.5 18.0001L10.2675 16.9211C5.88998 13.1036 2.99998 10.5778 2.99998 7.49601C2.99998 4.97013 5.05698 3.0001 7.67498 3.0001C8.76685 3.0001 9.82629 3.36097 10.6789 3.96758C10.9812 4.18266 11.2575 4.42864 11.5 4.70037C11.7425 4.42864 12.0188 4.18266 12.3211 3.96759C13.1737 3.36097 14.2331 3.0001 15.325 3.0001C17.943 3.0001 20 4.97013 20 7.49601C20 10.5778 17.11 13.1036 12.7325 16.9211L11.5 18.0001ZM14.3134 18.7268L11.5 21.1899L8.69008 18.7299L8.59628 18.6481C6.49229 16.8134 4.5545 15.1236 3.16345 13.4869C1.72868 11.7988 0.599976 9.85705 0.599976 7.49601C0.599976 3.55435 3.82362 0.600098 7.67498 0.600098C9.03905 0.600098 10.3628 0.979105 11.5 1.64371C12.6371 0.979105 13.9609 0.600098 15.325 0.600098C19.1763 0.600098 22.4 3.55435 22.4 7.49601C22.4 9.85705 21.2713 11.7988 19.8365 13.4869C18.4454 15.1236 16.5077 16.8134 14.4037 18.6481L14.3134 18.7268Z" fill="white"/>
</svg>
